<svg width="46" height="46" viewBox="0 0 46 46" fill="none" xmlns="http://www.w3.org/2000/svg">
<rect x="0.502319" y="0.5" width="45" height="45" rx="8.5" stroke="#B71C1C"/>
<path d="M22.3889 34.209L22.3889 37.6398" stroke="#B71C1C" stroke-width="2"/>
<path d="M22.3889 8L22.3889 26.8967" stroke="#B71C1C" stroke-width="2"/>
<path d="M32.1571 19.4932L32.1571 37.6404" stroke="#B71C1C" stroke-width="2"/>
<path d="M32.1571 8L32.1571 12.1925" stroke="#B71C1C" stroke-width="2"/>
<path d="M12.6206 24.6484L12.6206 37.6403" stroke="#B71C1C" stroke-width="2"/>
<path d="M12.6206 8L12.6206 17.3356" stroke="#B71C1C" stroke-width="2"/>
<path d="M28.6898 15.8428C28.6898 17.8621 30.3268 19.499 32.3461 19.499C34.3654 19.499 36.0023 17.8621 36.0023 15.8428C36.0023 13.8235 34.3654 12.1865 32.3461 12.1865C30.3268 12.1865 28.6898 13.8235 28.6898 15.8428Z" stroke="#B71C1C" stroke-width="2"/>
<path d="M18.7327 30.5527C18.7327 32.572 20.3696 34.209 22.3889 34.209C24.4082 34.209 26.0452 32.572 26.0452 30.5527C26.0452 28.5334 24.4082 26.8965 22.3889 26.8965C20.3696 26.8965 18.7327 28.5334 18.7327 30.5527Z" stroke="#B71C1C" stroke-width="2"/>
<path d="M8.96436 20.9922C8.96436 23.0115 10.6013 24.6484 12.6206 24.6484C14.6399 24.6484 16.2769 23.0115 16.2769 20.9922C16.2769 18.9729 14.6399 17.3359 12.6206 17.3359C10.6013 17.3359 8.96436 18.9729 8.96436 20.9922Z" stroke="#B71C1C" stroke-width="2"/>
</svg>
