<?xml version="1.0" encoding="UTF-8"?>
<svg id="Layer_1" xmlns="http://www.w3.org/2000/svg" baseProfile="tiny" version="1.2" viewBox="0 0 1080 1080">
  <!-- Generator: Adobe Illustrator 29.3.1, SVG Export Plug-In . SVG Version: 2.1.0 Build 151)  -->
  <path d="M210.3,548c-20.9,16.1-40.1,30.5-58.8,45.4-16.6,13.1-25.2,11.7-38.7-6.2-7.6-10.1-15.9-19.7-24.2-29.1-12.3-13.9-11.9-23.8,2.8-35.2,36.3-28.2,72.7-56.3,109.4-84,7-5.3,9.7-10.9,9.6-19.5-.4-42.3-.1-114.3,0-156.6,0-13,10.5-23.6,23.5-23.8,14.4-.2,28.8,0,43.2,0,18.2,0,25.9,7.5,26,25.4.1,17.4,0,64.6,0,82.1,0,3.6.5,10.7.5,10.7,0,0,147.5-110.1,216.1-162.6,12.4-9.5,19.6-9.9,30.8-1.3,99.5,76.1,387,295.6,431.2,329.4,14,10.7,14.7,20.3,3.2,33.6-9.7,11.2-18.7,23-28.3,34.3-12.3,14.6-21,15.3-35.8,3.6-19.1-15-57.9-45-57.9-45,0,0-1.6,210.5-1.6,309.1,0,24.2-7.8,32.3-31.9,31.9-34.4-.5-69,3-102.9-5.6-78.9-20.1-134.1-61.1-167.8-127.9-9.8-19.4-16.9-40-21.8-61.1l-.5-2.2-5.8,20.1c-27.9,99.7-122.5,175.9-214.7,175.9-27.5,2.7-55.6,1.2-83.4.8-14.3-.2-22.2-10.3-22.2-26.4v-315.9ZM303.1,711.2c0,25.2,0,50.4-.1,75.6,0,6.2-.8,11.7,9.1,10.4,63.5-8.2,116-54.1,132.3-116.1,8-30.6,6-61.8,6.4-92.9,0-6.8-3.2-6-7.8-4.3-16.9,6.6-33.8,13.2-50.7,19.7-10.5,4-19.2,1.2-25.1-8.1-5.7-9-3.8-17.2,3.2-25.2,50.3-57.9,100.4-116,150.6-174,10.2-11.8,20.5-11.6,30.8.3,49.7,57.4,99.4,114.9,149.3,172.2,7.4,8.5,10.6,16.9,4.3,27.1-5.4,8.8-14.1,11.4-26.4,7.2-16.5-5.6-32.8-13-49-19.2-6.3-2.4-9-1-8.8,6,.7,22.9-.9,47.2,1.9,70.2,8.5,70.1,63.9,126.6,134.1,136.6,8.8,1.3,10.2-1.9,10.2-9.2,0-101.2,0-202.4,0-303.6,0-6.5-1.9-11.1-7.2-15.1-72.4-54.8-144.8-109.6-217-164.7-5-3.8-8.4-3.9-13.5,0-72.6,55.1-145.4,110.1-218.3,164.9-6.4,4.8-8.4,10.1-8.4,17.8.3,49.7.1,199.4.1,224.6Z" fill="#4379f2"/>
</svg>